<?xml version="1.0" encoding="utf-8"?>
<!-- Generator: Adobe Illustrator 25.4.1, SVG Export Plug-In . SVG Version: 6.00 Build 0)  -->
<svg version="1.1" id="レイヤー_1" xmlns="http://www.w3.org/2000/svg" xmlns:xlink="http://www.w3.org/1999/xlink" x="0px"
	 y="0px" viewBox="0 0 347.1 95.1" style="enable-background:new 0 0 347.1 95.1;" xml:space="preserve">
<style type="text/css">
	.st0{display:none;}
	.st1{display:inline;fill:none;stroke:#A6529B;stroke-width:0.15;stroke-miterlimit:10;}
	.st2{fill:#1A005D;}
	.st3{fill:#8EC400;}
</style>
<g id="Guides" class="st0">
	<rect x="-58.3" y="-37.9" class="st1" width="58.3" height="215.3"/>
	<rect x="347.2" y="-37.9" class="st1" width="58.3" height="215.3"/>
	<rect x="-58.3" y="-37.8" class="st1" width="464" height="56.9"/>
	<line class="st1" x1="405.3" y1="76" x2="-58.6" y2="76"/>
	<rect x="-58.3" y="120.5" class="st1" width="464" height="56.9"/>
</g>
<g id="Subsidiary_name" class="st0">
</g>
<polygon class="st2" points="179,19.1 184.5,19.1 196.9,35.5 196.9,19.1 202.7,19.1 202.7,45.8 197.7,45.8 184.8,28.8 184.8,45.8 
	179,45.8 "/>
<rect x="213.7" y="19.1" class="st2" width="5.9" height="26.7"/>
<g>
	<path class="st2" d="M230.5,19.1h10.9c6.4,0,10.2,3.8,10.2,9.2v0.1c0,6.2-4.8,9.4-10.8,9.4h-4.5v8h-5.9V19.1z M241,32.6
		c2.9,0,4.6-1.8,4.6-4v-0.1c0-2.6-1.8-4-4.8-4h-4.5v8.2H241z"/>
	<path class="st2" d="M259.7,19.1h10.9c6.4,0,10.2,3.8,10.2,9.2v0.1c0,6.2-4.8,9.4-10.8,9.4h-4.5v8h-5.9V19.1z M270.3,32.6
		c2.9,0,4.6-1.8,4.6-4v-0.1c0-2.6-1.8-4-4.8-4h-4.5v8.2H270.3z"/>
	<path class="st2" d="M287.1,32.5L287.1,32.5c0-7.7,6-13.9,14.2-13.9s14.1,6.1,14.1,13.7v0.1c0,7.6-6,13.8-14.2,13.8
		C293,46.3,287.1,40.1,287.1,32.5 M309.3,32.5L309.3,32.5c0-4.6-3.4-8.5-8.1-8.5c-4.7,0-8,3.7-8,8.3v0.1c0,4.6,3.4,8.4,8.1,8.4
		C306,40.8,309.3,37.1,309.3,32.5"/>
</g>
<polygon class="st2" points="323.2,19.1 328.6,19.1 341.1,35.5 341.1,19.1 346.9,19.1 346.9,45.8 341.9,45.8 329,28.8 329,45.8 
	323.2,45.8 "/>
<polygon class="st2" points="179,51.5 179,76 196.9,76 196.9,73.5 181.8,73.5 181.8,64.9 195.2,64.9 195.2,62.4 181.8,62.4 
	181.8,54 196.8,54 196.8,51.5 "/>
<polygon class="st2" points="220.3,51.5 212.8,61.5 205.3,51.5 202.1,51.5 211.1,63.5 201.7,76 204.9,76 212.7,65.5 220.6,76 
	223.9,76 214.4,63.5 223.5,51.5 "/>
<g>
	<path class="st2" d="M230,51.5h9.2c5.5,0,9.2,2.9,9.2,7.8v0.1c0,5.3-4.4,8-9.6,8h-6V76H230V51.5z M238.9,64.8
		c4.1,0,6.7-2.2,6.7-5.4v-0.1c0-3.5-2.6-5.3-6.6-5.3h-6.2v10.8H238.9z"/>
	<path class="st2" d="M255,51.5h10.5c3,0,5.4,0.9,7,2.5c1.2,1.2,1.9,2.9,1.9,4.8v0.1c0,4.1-2.8,6.4-6.6,7.1l7.5,10h-3.4l-7.1-9.5
		h-0.1h-6.9V76H255V51.5z M265.3,64c3.7,0,6.3-1.9,6.3-5v-0.1c0-3-2.3-4.8-6.3-4.8h-7.6V64H265.3z"/>
</g>
<polygon class="st2" points="282.4,51.5 282.4,76 300.3,76 300.3,73.5 285.1,73.5 285.1,64.9 298.5,64.9 298.5,62.4 285.1,62.4 
	285.1,54 300.1,54 300.1,51.5 "/>
<g>
	<path class="st2" d="M305.7,72.4l1.7-2c2.6,2.3,5,3.5,8.4,3.5c3.3,0,5.5-1.7,5.5-4.2v-0.1c0-2.3-1.2-3.6-6.4-4.7
		c-5.6-1.2-8.2-3-8.2-7.1v-0.1c0-3.9,3.4-6.7,8-6.7c3.6,0,6.1,1,8.6,3l-1.6,2.1c-2.3-1.9-4.6-2.7-7.1-2.7c-3.2,0-5.2,1.8-5.2,4v0.1
		c0,2.3,1.3,3.6,6.6,4.8c5.5,1.2,8,3.2,8,6.9v0.1c0,4.2-3.5,6.9-8.4,6.9C311.8,76.4,308.6,75.1,305.7,72.4"/>
	<path class="st2" d="M329.1,72.4l1.7-2c2.6,2.3,5,3.5,8.4,3.5c3.3,0,5.5-1.7,5.5-4.2v-0.1c0-2.3-1.2-3.6-6.4-4.7
		c-5.6-1.2-8.2-3-8.2-7.1v-0.1c0-3.9,3.4-6.7,8-6.7c3.6,0,6.1,1,8.6,3l-1.6,2.1c-2.3-1.9-4.5-2.7-7.1-2.7c-3.2,0-5.2,1.8-5.2,4v0.1
		c0,2.3,1.3,3.6,6.6,4.8c5.5,1.2,8,3.2,8,6.9v0.1c0,4.2-3.5,6.9-8.4,6.9C335.2,76.4,332,75.1,329.1,72.4"/>
</g>
<path class="st3" d="M22.8,76V49.4L47,76h72.6l10.2-12L140,76h27.8l-24.1-28.4l24.1-28.4H140l-10.2,12l-10.2-12H47v26.6L22.8,19.1
	L0,19.1V76H22.8z M69.9,25.4h27.3l5.4,6.3H69.9V25.4z M69.9,38.1h38l5.4,6.3H69.9L69.9,38.1z M69.9,50.7h43.3l-5.4,6.3h-38V50.7z
	 M69.9,63.4h32.6l-5.4,6.3H69.9V63.4z"/>
</svg>
